<svg xmlns="http://www.w3.org/2000/svg" xmlns:xlink="http://www.w3.org/1999/xlink" version="1.1" viewBox="0 0 96 120" x="0px" y="0px"><path d="M48 86.68c-6.616 0-12-5.384-12-12s5.384-12 12-12c6.616 0 12 5.384 12 12s-5.384 12-12 12zM48 66.68c-4.412 0-8 3.584-8 8s3.588 8 8 8c4.416 0 8-3.584 8-8s-3.584-8-8-8z" fill="#000000"/><path d="M48 64.516c-1.104 0-2-0.9-2-2v-24c0-1.1 0.896-2 2-2s2 0.9 2 2v24c0 1.1-0.896 2-2 2z" fill="#000000"/><path d="M48 94.68c-11.028 0-20-8.968-20-20 0-7.156 3.8-13.656 10-17.244v-46.116c0-5.516 4.488-10 10-10s10 4.484 10 10v46.12c6.2 3.584 10 10.084 10 17.244 0 11.028-8.972 19.996-20 19.996zM48 5.32c-3.308 0-6 2.692-6 6v47.32c0 0.752-0.428 1.444-1.104 1.78-5.488 2.752-8.896 8.204-8.896 14.252 0 8.828 7.176 16 16 16s16-7.172 16-16c0-6.056-3.408-11.508-8.9-14.252-0.672-0.336-1.1-1.032-1.1-1.78v-47.32c0-3.312-2.692-6-6-6z" fill="#000000"/></svg>